<svg id="Layer_1_copy_4" data-name="Layer 1 copy 4" xmlns="http://www.w3.org/2000/svg" viewBox="0 0 420.97 380.45"><defs><style>.cls-1{fill:#00192b;}.cls-2{fill:#135994;}</style></defs><title>logo</title><path class="cls-1" d="M66.93,156.76h42.14a63.54,63.54,0,0,1,63.54,63.54v56.23a0,0,0,0,1,0,0H66.93a0,0,0,0,1,0,0V156.76A0,0,0,0,1,66.93,156.76Z"/><path class="cls-2" d="M66.93,283.58H421a0,0,0,0,1,0,0v23.81a73.07,73.07,0,0,1-73.07,73.07h-281a0,0,0,0,1,0,0V283.58a0,0,0,0,1,0,0Z"/><rect class="cls-2" x="327.61" y="98.64" width="93.35" height="187.27"/><path class="cls-2" d="M0,0H354.36A66.6,66.6,0,0,1,421,66.6v33.8a0,0,0,0,1,0,0H72.08A72.08,72.08,0,0,1,0,28.32V0A0,0,0,0,1,0,0Z"/></svg>